<svg xmlns="http://www.w3.org/2000/svg" xmlns:xlink="http://www.w3.org/1999/xlink" width="40" zoomAndPan="magnify" viewBox="0 0 30 30.000001" height="40" preserveAspectRatio="xMidYMid meet" version="1.0"><defs><clipPath id="id1"><path d="M 0.484375 0 L 9.195312 0 L 9.195312 8.710938 L 0.484375 8.710938 Z M 0.484375 0 " clip-rule="nonzero"/></clipPath><clipPath id="id2"><path d="M 0.484375 2.515625 L 29.515625 2.515625 L 29.515625 29.03125 L 0.484375 29.03125 Z M 0.484375 2.515625 " clip-rule="nonzero"/></clipPath><clipPath id="id3"><path d="M 3.386719 22 L 26.613281 22 L 26.613281 22.296875 L 3.386719 22.296875 Z M 3.386719 22 " clip-rule="nonzero"/></clipPath><clipPath id="id4"><path d="M 14 19 L 26.613281 19 L 26.613281 22.296875 L 14 22.296875 Z M 14 19 " clip-rule="nonzero"/></clipPath><clipPath id="id5"><path d="M 14 16 L 26 16 L 26 22.296875 L 14 22.296875 Z M 14 16 " clip-rule="nonzero"/></clipPath><clipPath id="id6"><path d="M 14 14 L 24 14 L 24 22.296875 L 14 22.296875 Z M 14 14 " clip-rule="nonzero"/></clipPath><clipPath id="id7"><path d="M 14 12 L 21 12 L 21 22.296875 L 14 22.296875 Z M 14 12 " clip-rule="nonzero"/></clipPath><clipPath id="id8"><path d="M 14 11 L 19 11 L 19 22.296875 L 14 22.296875 Z M 14 11 " clip-rule="nonzero"/></clipPath><clipPath id="id9"><path d="M 14 10.683594 L 16 10.683594 L 16 22.296875 L 14 22.296875 Z M 14 10.683594 " clip-rule="nonzero"/></clipPath><clipPath id="id10"><path d="M 11 11 L 16 11 L 16 22.296875 L 11 22.296875 Z M 11 11 " clip-rule="nonzero"/></clipPath><clipPath id="id11"><path d="M 9 12 L 16 12 L 16 22.296875 L 9 22.296875 Z M 9 12 " clip-rule="nonzero"/></clipPath><clipPath id="id12"><path d="M 6 14 L 16 14 L 16 22.296875 L 6 22.296875 Z M 6 14 " clip-rule="nonzero"/></clipPath><clipPath id="id13"><path d="M 4 16 L 16 16 L 16 22.296875 L 4 22.296875 Z M 4 16 " clip-rule="nonzero"/></clipPath><clipPath id="id14"><path d="M 3.386719 19 L 16 19 L 16 22.296875 L 3.386719 22.296875 Z M 3.386719 19 " clip-rule="nonzero"/></clipPath></defs><g clip-path="url(#id1)"><path fill="#dfd948" d="M 4.839844 0 C 2.433594 0 0.484375 1.949219 0.484375 4.355469 C 0.484375 6.761719 2.433594 8.710938 4.839844 8.710938 C 7.242188 8.710938 9.195312 6.761719 9.195312 4.355469 C 9.195312 1.949219 7.242188 0 4.839844 0 " fill-opacity="1" fill-rule="nonzero"/></g><g clip-path="url(#id2)"><path fill="#f8f8f8" d="M 10.167969 3.347656 C 11.652344 2.84375 13.347656 2.515625 15.007812 2.515625 C 16.667969 2.515625 18.265625 2.796875 19.738281 3.300781 C 19.769531 3.316406 19.800781 3.316406 19.832031 3.332031 C 25.363281 5.347656 29.433594 10.667969 29.511719 16.886719 L 29.511719 38.078125 L 0.488281 38.078125 L 0.488281 16.902344 C 0.566406 10.636719 4.574219 5.316406 10.167969 3.347656 " fill-opacity="1" fill-rule="nonzero"/></g><g clip-path="url(#id3)"><path fill="#000000" d="M 26.515625 22.292969 L 3.488281 22.292969 C 3.433594 22.292969 3.386719 22.246094 3.386719 22.191406 C 3.386719 22.136719 3.433594 22.09375 3.488281 22.09375 L 26.515625 22.09375 C 26.570312 22.09375 26.617188 22.136719 26.617188 22.191406 C 26.617188 22.246094 26.570312 22.292969 26.515625 22.292969 Z M 26.515625 22.292969 " fill-opacity="1" fill-rule="nonzero"/></g><g clip-path="url(#id4)"><path fill="#000000" d="M 15.003906 22.292969 C 14.945312 22.292969 14.898438 22.25 14.898438 22.195312 C 14.898438 22.160156 14.914062 22.132812 14.941406 22.113281 C 14.957031 22.101562 14.972656 22.09375 14.992188 22.089844 L 26.097656 19.144531 C 26.152344 19.128906 26.207031 19.160156 26.222656 19.214844 C 26.238281 19.269531 26.203125 19.324219 26.152344 19.339844 L 15.042969 22.285156 C 15.03125 22.292969 15.015625 22.292969 15.003906 22.292969 Z M 15.003906 22.292969 " fill-opacity="1" fill-rule="nonzero"/></g><g clip-path="url(#id5)"><path fill="#000000" d="M 15.003906 22.292969 C 14.945312 22.292969 14.898438 22.25 14.898438 22.195312 C 14.898438 22.167969 14.910156 22.140625 14.925781 22.125 C 14.933594 22.117188 14.941406 22.109375 14.953125 22.105469 L 24.921875 16.40625 C 24.96875 16.375 25.03125 16.394531 25.058594 16.441406 C 25.085938 16.488281 25.070312 16.550781 25.023438 16.578125 L 15.066406 22.269531 C 15.050781 22.285156 15.027344 22.292969 15.003906 22.292969 Z M 15.003906 22.292969 " fill-opacity="1" fill-rule="nonzero"/></g><g clip-path="url(#id6)"><path fill="#000000" d="M 15.003906 22.292969 C 14.945312 22.292969 14.898438 22.25 14.898438 22.195312 C 14.898438 22.171875 14.90625 22.148438 14.921875 22.132812 C 14.925781 22.128906 14.925781 22.125 14.929688 22.121094 L 23.070312 14.058594 C 23.109375 14.019531 23.175781 14.019531 23.214844 14.058594 C 23.253906 14.097656 23.253906 14.160156 23.214844 14.199219 L 15.082031 22.253906 C 15.0625 22.277344 15.035156 22.292969 15.003906 22.292969 Z M 15.003906 22.292969 " fill-opacity="1" fill-rule="nonzero"/></g><g clip-path="url(#id7)"><path fill="#000000" d="M 15.003906 22.292969 C 14.945312 22.292969 14.898438 22.25 14.898438 22.195312 C 14.898438 22.179688 14.902344 22.167969 14.90625 22.15625 C 14.910156 22.148438 14.910156 22.144531 14.914062 22.136719 L 20.671875 12.269531 C 20.699219 12.21875 20.761719 12.203125 20.808594 12.230469 C 20.855469 12.257812 20.875 12.320312 20.847656 12.367188 L 15.09375 22.230469 C 15.078125 22.265625 15.042969 22.292969 15.003906 22.292969 Z M 15.003906 22.292969 " fill-opacity="1" fill-rule="nonzero"/></g><g clip-path="url(#id8)"><path fill="#000000" d="M 15.003906 22.292969 C 14.945312 22.292969 14.898438 22.25 14.898438 22.195312 C 14.898438 22.183594 14.902344 22.171875 14.902344 22.164062 C 14.90625 22.164062 14.90625 22.164062 14.90625 22.164062 L 17.882812 11.152344 C 17.898438 11.101562 17.953125 11.070312 18.007812 11.082031 C 18.0625 11.097656 18.09375 11.152344 18.078125 11.207031 L 15.101562 22.210938 C 15.089844 22.257812 15.050781 22.292969 15.003906 22.292969 Z M 15.003906 22.292969 " fill-opacity="1" fill-rule="nonzero"/></g><g clip-path="url(#id9)"><path fill="#000000" d="M 15.003906 22.292969 C 14.945312 22.292969 14.902344 22.253906 14.902344 22.195312 L 14.902344 10.789062 C 14.902344 10.734375 14.945312 10.6875 15.003906 10.6875 C 15.058594 10.6875 15.105469 10.734375 15.105469 10.789062 L 15.105469 22.1875 C 15.105469 22.242188 15.058594 22.292969 15.003906 22.292969 Z M 15.003906 22.292969 " fill-opacity="1" fill-rule="nonzero"/></g><g clip-path="url(#id10)"><path fill="#000000" d="M 15.003906 22.296875 C 14.96875 22.296875 14.9375 22.28125 14.921875 22.253906 C 14.910156 22.242188 14.902344 22.226562 14.898438 22.207031 L 11.921875 11.207031 C 11.910156 11.152344 11.941406 11.097656 11.996094 11.082031 C 12.046875 11.066406 12.105469 11.101562 12.117188 11.152344 L 15.09375 22.152344 C 15.101562 22.164062 15.105469 22.179688 15.105469 22.195312 C 15.105469 22.25 15.058594 22.296875 15.003906 22.296875 Z M 15.003906 22.296875 " fill-opacity="1" fill-rule="nonzero"/></g><g clip-path="url(#id11)"><path fill="#000000" d="M 15.003906 22.296875 C 14.96875 22.296875 14.9375 22.28125 14.921875 22.253906 C 14.914062 22.246094 14.910156 22.238281 14.90625 22.230469 L 9.15625 12.367188 C 9.128906 12.320312 9.144531 12.257812 9.195312 12.230469 C 9.242188 12.203125 9.304688 12.21875 9.332031 12.269531 L 15.085938 22.136719 C 15.097656 22.152344 15.105469 22.171875 15.105469 22.195312 C 15.105469 22.25 15.058594 22.296875 15.003906 22.296875 Z M 15.003906 22.296875 " fill-opacity="1" fill-rule="nonzero"/></g><g clip-path="url(#id12)"><path fill="#000000" d="M 15.003906 22.296875 C 14.976562 22.296875 14.949219 22.285156 14.933594 22.269531 C 14.929688 22.265625 14.925781 22.265625 14.925781 22.261719 L 6.789062 14.199219 C 6.75 14.160156 6.75 14.097656 6.789062 14.058594 C 6.828125 14.019531 6.890625 14.019531 6.929688 14.058594 L 15.058594 22.113281 C 15.0625 22.117188 15.070312 22.117188 15.074219 22.125 C 15.089844 22.140625 15.105469 22.167969 15.105469 22.195312 C 15.105469 22.25 15.058594 22.296875 15.003906 22.296875 Z M 15.003906 22.296875 " fill-opacity="1" fill-rule="nonzero"/></g><g clip-path="url(#id13)"><path fill="#000000" d="M 15.003906 22.292969 C 14.984375 22.292969 14.964844 22.289062 14.949219 22.277344 C 14.945312 22.277344 14.945312 22.277344 14.945312 22.277344 L 4.980469 16.578125 C 4.929688 16.550781 4.914062 16.488281 4.941406 16.441406 C 4.96875 16.394531 5.03125 16.375 5.082031 16.40625 L 15.039062 22.101562 C 15.058594 22.109375 15.074219 22.121094 15.085938 22.140625 C 15.097656 22.15625 15.101562 22.175781 15.101562 22.195312 C 15.101562 22.25 15.058594 22.292969 15.003906 22.292969 Z M 15.003906 22.292969 " fill-opacity="1" fill-rule="nonzero"/></g><g clip-path="url(#id14)"><path fill="#000000" d="M 15.003906 22.292969 C 14.992188 22.292969 14.980469 22.292969 14.972656 22.289062 C 14.972656 22.289062 14.972656 22.289062 14.96875 22.289062 L 3.855469 19.339844 C 3.800781 19.324219 3.769531 19.269531 3.78125 19.214844 C 3.796875 19.160156 3.851562 19.128906 3.90625 19.144531 L 15.019531 22.09375 C 15.066406 22.101562 15.105469 22.144531 15.105469 22.191406 C 15.105469 22.246094 15.058594 22.292969 15.003906 22.292969 Z M 15.003906 22.292969 " fill-opacity="1" fill-rule="nonzero"/></g></svg>